<mxfile host="app.diagrams.net" agent="Mozilla/5.0 (Macintosh; Intel Mac OS X 10_15_7) AppleWebKit/605.1.15 (KHTML, like Gecko) Version/18.6 Safari/605.1.15" version="28.1.0">
  <diagram name="Page-1" id="1b7Fror-aTtuL5oWS9lX">
    <mxGraphModel dx="2066" dy="1167" grid="1" gridSize="10" guides="1" tooltips="1" connect="1" arrows="1" fold="1" page="1" pageScale="1" pageWidth="827" pageHeight="1169" math="0" shadow="0">
      <root>
        <mxCell id="0" />
        <mxCell id="1" parent="0" />
        <mxCell id="CaitW4O3s-EB0gviXZPl-3" value="" style="rounded=0;whiteSpace=wrap;html=1;fillColor=none;" parent="1" vertex="1">
          <mxGeometry x="41" y="280" width="1079" height="670" as="geometry" />
        </mxCell>
        <mxCell id="CaitW4O3s-EB0gviXZPl-34" style="edgeStyle=orthogonalEdgeStyle;rounded=0;orthogonalLoop=1;jettySize=auto;html=1;exitX=1;exitY=0.5;exitDx=0;exitDy=0;entryX=0.25;entryY=1;entryDx=0;entryDy=0;startArrow=classic;startFill=1;" parent="1" source="CaitW4O3s-EB0gviXZPl-23" target="CaitW4O3s-EB0gviXZPl-33" edge="1">
          <mxGeometry relative="1" as="geometry" />
        </mxCell>
        <mxCell id="CaitW4O3s-EB0gviXZPl-37" value="requesting dependencies" style="edgeLabel;html=1;align=center;verticalAlign=middle;resizable=0;points=[];" parent="CaitW4O3s-EB0gviXZPl-34" vertex="1" connectable="0">
          <mxGeometry x="0.038" y="2" relative="1" as="geometry">
            <mxPoint x="45" y="-8" as="offset" />
          </mxGeometry>
        </mxCell>
        <mxCell id="CaitW4O3s-EB0gviXZPl-38" style="edgeStyle=orthogonalEdgeStyle;rounded=0;orthogonalLoop=1;jettySize=auto;html=1;exitX=0.5;exitY=0;exitDx=0;exitDy=0;entryX=0.75;entryY=0;entryDx=0;entryDy=0;" parent="1" source="CaitW4O3s-EB0gviXZPl-23" target="CaitW4O3s-EB0gviXZPl-17" edge="1">
          <mxGeometry relative="1" as="geometry">
            <Array as="points">
              <mxPoint x="650" y="620" />
              <mxPoint x="320" y="620" />
            </Array>
          </mxGeometry>
        </mxCell>
        <mxCell id="CaitW4O3s-EB0gviXZPl-39" value="emit events" style="edgeLabel;html=1;align=center;verticalAlign=middle;resizable=0;points=[];" parent="CaitW4O3s-EB0gviXZPl-38" vertex="1" connectable="0">
          <mxGeometry x="0.1229" y="-1" relative="1" as="geometry">
            <mxPoint x="27" y="-4" as="offset" />
          </mxGeometry>
        </mxCell>
        <mxCell id="CaitW4O3s-EB0gviXZPl-23" value="" style="rounded=0;whiteSpace=wrap;html=1;" parent="1" vertex="1">
          <mxGeometry x="590" y="680" width="120" height="60" as="geometry" />
        </mxCell>
        <mxCell id="CaitW4O3s-EB0gviXZPl-1" value="&lt;h1 style=&quot;margin-top: 0px;&quot;&gt;SW-Architecture (Backend)&lt;/h1&gt;&lt;p&gt;This describes the software architecture and patterns used in the backend of Keyline.&lt;/p&gt;" style="text;html=1;whiteSpace=wrap;overflow=hidden;rounded=0;" parent="1" vertex="1">
          <mxGeometry x="10" y="10" width="370" height="120" as="geometry" />
        </mxCell>
        <mxCell id="CaitW4O3s-EB0gviXZPl-6" value="Client" style="shape=umlActor;verticalLabelPosition=bottom;verticalAlign=top;html=1;outlineConnect=0;" parent="1" vertex="1">
          <mxGeometry x="90" y="160" width="30" height="60" as="geometry" />
        </mxCell>
        <mxCell id="CaitW4O3s-EB0gviXZPl-7" style="edgeStyle=orthogonalEdgeStyle;rounded=0;orthogonalLoop=1;jettySize=auto;html=1;entryX=0.5;entryY=0;entryDx=0;entryDy=0;" parent="1" source="CaitW4O3s-EB0gviXZPl-6" target="CaitW4O3s-EB0gviXZPl-8" edge="1">
          <mxGeometry relative="1" as="geometry" />
        </mxCell>
        <mxCell id="CaitW4O3s-EB0gviXZPl-8" value="gorilla mux router (http routing)" style="rounded=0;whiteSpace=wrap;html=1;" parent="1" vertex="1">
          <mxGeometry x="90" y="320" width="120" height="60" as="geometry" />
        </mxCell>
        <mxCell id="CaitW4O3s-EB0gviXZPl-10" value="" style="rounded=0;whiteSpace=wrap;html=1;" parent="1" vertex="1">
          <mxGeometry x="100" y="535" width="120" height="60" as="geometry" />
        </mxCell>
        <mxCell id="CaitW4O3s-EB0gviXZPl-11" value="" style="rounded=0;whiteSpace=wrap;html=1;" parent="1" vertex="1">
          <mxGeometry x="90" y="555" width="120" height="60" as="geometry" />
        </mxCell>
        <mxCell id="CaitW4O3s-EB0gviXZPl-18" style="edgeStyle=orthogonalEdgeStyle;rounded=0;orthogonalLoop=1;jettySize=auto;html=1;exitX=0.5;exitY=1;exitDx=0;exitDy=0;entryX=0;entryY=0.5;entryDx=0;entryDy=0;" parent="1" source="CaitW4O3s-EB0gviXZPl-12" target="CaitW4O3s-EB0gviXZPl-17" edge="1">
          <mxGeometry relative="1" as="geometry" />
        </mxCell>
        <mxCell id="CaitW4O3s-EB0gviXZPl-20" value="Command/Query (CQRS)" style="edgeLabel;html=1;align=center;verticalAlign=middle;resizable=0;points=[];" parent="CaitW4O3s-EB0gviXZPl-18" vertex="1" connectable="0">
          <mxGeometry x="0.2425" y="1" relative="1" as="geometry">
            <mxPoint x="-26" y="-19" as="offset" />
          </mxGeometry>
        </mxCell>
        <mxCell id="CaitW4O3s-EB0gviXZPl-12" value="http handler functions" style="rounded=0;whiteSpace=wrap;html=1;" parent="1" vertex="1">
          <mxGeometry x="80" y="575" width="120" height="60" as="geometry" />
        </mxCell>
        <mxCell id="CaitW4O3s-EB0gviXZPl-13" style="edgeStyle=orthogonalEdgeStyle;rounded=0;orthogonalLoop=1;jettySize=auto;html=1;exitX=0.5;exitY=1;exitDx=0;exitDy=0;entryX=0.442;entryY=0.05;entryDx=0;entryDy=0;entryPerimeter=0;" parent="1" source="CaitW4O3s-EB0gviXZPl-8" target="CaitW4O3s-EB0gviXZPl-10" edge="1">
          <mxGeometry relative="1" as="geometry" />
        </mxCell>
        <mxCell id="CaitW4O3s-EB0gviXZPl-15" value="middlewares" style="rounded=0;whiteSpace=wrap;html=1;" parent="1" vertex="1">
          <mxGeometry x="90" y="420" width="120" height="60" as="geometry" />
        </mxCell>
        <mxCell id="CaitW4O3s-EB0gviXZPl-47" style="edgeStyle=orthogonalEdgeStyle;rounded=0;orthogonalLoop=1;jettySize=auto;html=1;exitX=0.5;exitY=1;exitDx=0;exitDy=0;entryX=0.5;entryY=0;entryDx=0;entryDy=0;" parent="1" source="CaitW4O3s-EB0gviXZPl-17" target="CaitW4O3s-EB0gviXZPl-44" edge="1">
          <mxGeometry relative="1" as="geometry" />
        </mxCell>
        <mxCell id="CaitW4O3s-EB0gviXZPl-49" value="event" style="edgeLabel;html=1;align=center;verticalAlign=middle;resizable=0;points=[];" parent="CaitW4O3s-EB0gviXZPl-47" vertex="1" connectable="0">
          <mxGeometry x="-0.111" relative="1" as="geometry">
            <mxPoint x="-6" y="-15" as="offset" />
          </mxGeometry>
        </mxCell>
        <mxCell id="CaitW4O3s-EB0gviXZPl-17" value="Mediator (application layer dispatch)" style="rounded=0;whiteSpace=wrap;html=1;" parent="1" vertex="1">
          <mxGeometry x="230" y="690" width="120" height="60" as="geometry" />
        </mxCell>
        <mxCell id="CaitW4O3s-EB0gviXZPl-22" value="" style="rounded=0;whiteSpace=wrap;html=1;" parent="1" vertex="1">
          <mxGeometry x="580" y="700" width="120" height="60" as="geometry" />
        </mxCell>
        <mxCell id="CaitW4O3s-EB0gviXZPl-21" value="request handler functions" style="rounded=0;whiteSpace=wrap;html=1;" parent="1" vertex="1">
          <mxGeometry x="570" y="720" width="120" height="60" as="geometry" />
        </mxCell>
        <mxCell id="CaitW4O3s-EB0gviXZPl-24" style="edgeStyle=orthogonalEdgeStyle;rounded=0;orthogonalLoop=1;jettySize=auto;html=1;entryX=0.03;entryY=0.564;entryDx=0;entryDy=0;entryPerimeter=0;" parent="1" source="CaitW4O3s-EB0gviXZPl-17" target="CaitW4O3s-EB0gviXZPl-21" edge="1">
          <mxGeometry relative="1" as="geometry" />
        </mxCell>
        <mxCell id="CaitW4O3s-EB0gviXZPl-48" value="Requests" style="edgeLabel;html=1;align=center;verticalAlign=middle;resizable=0;points=[];" parent="CaitW4O3s-EB0gviXZPl-24" vertex="1" connectable="0">
          <mxGeometry x="-0.7845" y="-1" relative="1" as="geometry">
            <mxPoint x="12" y="-1" as="offset" />
          </mxGeometry>
        </mxCell>
        <mxCell id="CaitW4O3s-EB0gviXZPl-26" value="behaviours" style="rounded=0;whiteSpace=wrap;html=1;" parent="1" vertex="1">
          <mxGeometry x="430" y="710" width="120" height="60" as="geometry" />
        </mxCell>
        <mxCell id="CaitW4O3s-EB0gviXZPl-32" style="edgeStyle=orthogonalEdgeStyle;rounded=0;orthogonalLoop=1;jettySize=auto;html=1;exitX=0;exitY=0.5;exitDx=0;exitDy=0;exitPerimeter=0;entryX=1;entryY=0.75;entryDx=0;entryDy=0;startArrow=classic;startFill=1;" parent="1" source="CaitW4O3s-EB0gviXZPl-27" target="CaitW4O3s-EB0gviXZPl-29" edge="1">
          <mxGeometry relative="1" as="geometry" />
        </mxCell>
        <mxCell id="CaitW4O3s-EB0gviXZPl-27" value="DB Postgres" style="shape=cylinder3;whiteSpace=wrap;html=1;boundedLbl=1;backgroundOutline=1;size=15;" parent="1" vertex="1">
          <mxGeometry x="1200" y="630" width="160" height="210" as="geometry" />
        </mxCell>
        <mxCell id="CaitW4O3s-EB0gviXZPl-35" style="edgeStyle=orthogonalEdgeStyle;rounded=0;orthogonalLoop=1;jettySize=auto;html=1;exitX=0.25;exitY=0;exitDx=0;exitDy=0;entryX=1;entryY=0.25;entryDx=0;entryDy=0;" parent="1" source="CaitW4O3s-EB0gviXZPl-29" target="CaitW4O3s-EB0gviXZPl-33" edge="1">
          <mxGeometry relative="1" as="geometry" />
        </mxCell>
        <mxCell id="CaitW4O3s-EB0gviXZPl-36" value="registered as dependencies" style="edgeLabel;html=1;align=center;verticalAlign=middle;resizable=0;points=[];" parent="CaitW4O3s-EB0gviXZPl-35" vertex="1" connectable="0">
          <mxGeometry x="0.0992" relative="1" as="geometry">
            <mxPoint as="offset" />
          </mxGeometry>
        </mxCell>
        <mxCell id="CaitW4O3s-EB0gviXZPl-29" value="" style="rounded=0;whiteSpace=wrap;html=1;" parent="1" vertex="1">
          <mxGeometry x="970" y="690" width="120" height="60" as="geometry" />
        </mxCell>
        <mxCell id="CaitW4O3s-EB0gviXZPl-30" value="" style="rounded=0;whiteSpace=wrap;html=1;" parent="1" vertex="1">
          <mxGeometry x="960" y="710" width="120" height="60" as="geometry" />
        </mxCell>
        <mxCell id="CaitW4O3s-EB0gviXZPl-31" value="Repositories" style="rounded=0;whiteSpace=wrap;html=1;" parent="1" vertex="1">
          <mxGeometry x="950" y="730" width="120" height="60" as="geometry" />
        </mxCell>
        <mxCell id="CaitW4O3s-EB0gviXZPl-33" value="IoC Container" style="rounded=0;whiteSpace=wrap;html=1;" parent="1" vertex="1">
          <mxGeometry x="770" y="595" width="120" height="60" as="geometry" />
        </mxCell>
        <mxCell id="CaitW4O3s-EB0gviXZPl-44" value="" style="rounded=0;whiteSpace=wrap;html=1;" parent="1" vertex="1">
          <mxGeometry x="250" y="800" width="120" height="60" as="geometry" />
        </mxCell>
        <mxCell id="CaitW4O3s-EB0gviXZPl-45" value="" style="rounded=0;whiteSpace=wrap;html=1;" parent="1" vertex="1">
          <mxGeometry x="240" y="820" width="120" height="60" as="geometry" />
        </mxCell>
        <mxCell id="CaitW4O3s-EB0gviXZPl-50" style="edgeStyle=orthogonalEdgeStyle;rounded=0;orthogonalLoop=1;jettySize=auto;html=1;entryX=0.75;entryY=1;entryDx=0;entryDy=0;exitX=1;exitY=0.5;exitDx=0;exitDy=0;" parent="1" source="CaitW4O3s-EB0gviXZPl-44" target="CaitW4O3s-EB0gviXZPl-33" edge="1">
          <mxGeometry relative="1" as="geometry" />
        </mxCell>
        <mxCell id="CaitW4O3s-EB0gviXZPl-46" value="event handler functions" style="rounded=0;whiteSpace=wrap;html=1;" parent="1" vertex="1">
          <mxGeometry x="230" y="840" width="120" height="60" as="geometry" />
        </mxCell>
        <mxCell id="RGOuZ_9aOBnYIE1q5zv2-9" style="edgeStyle=orthogonalEdgeStyle;rounded=0;orthogonalLoop=1;jettySize=auto;html=1;entryX=0.5;entryY=0;entryDx=0;entryDy=0;" edge="1" parent="1" source="RGOuZ_9aOBnYIE1q5zv2-4" target="CaitW4O3s-EB0gviXZPl-33">
          <mxGeometry relative="1" as="geometry" />
        </mxCell>
        <mxCell id="RGOuZ_9aOBnYIE1q5zv2-4" value="Outbox Cron" style="rounded=0;whiteSpace=wrap;html=1;" vertex="1" parent="1">
          <mxGeometry x="905" y="420" width="120" height="60" as="geometry" />
        </mxCell>
        <mxCell id="RGOuZ_9aOBnYIE1q5zv2-5" style="edgeStyle=orthogonalEdgeStyle;rounded=0;orthogonalLoop=1;jettySize=auto;html=1;entryX=0.5;entryY=0;entryDx=0;entryDy=0;entryPerimeter=0;" edge="1" parent="1" source="RGOuZ_9aOBnYIE1q5zv2-4" target="CaitW4O3s-EB0gviXZPl-27">
          <mxGeometry relative="1" as="geometry" />
        </mxCell>
        <mxCell id="RGOuZ_9aOBnYIE1q5zv2-6" value="" style="shape=cylinder3;whiteSpace=wrap;html=1;boundedLbl=1;backgroundOutline=1;size=15;rotation=-90;" vertex="1" parent="1">
          <mxGeometry x="935" y="25" width="60" height="330" as="geometry" />
        </mxCell>
        <mxCell id="RGOuZ_9aOBnYIE1q5zv2-7" value="RabbitMQ" style="text;html=1;align=center;verticalAlign=middle;whiteSpace=wrap;rounded=0;" vertex="1" parent="1">
          <mxGeometry x="935" y="180" width="60" height="30" as="geometry" />
        </mxCell>
        <mxCell id="RGOuZ_9aOBnYIE1q5zv2-8" style="edgeStyle=orthogonalEdgeStyle;rounded=0;orthogonalLoop=1;jettySize=auto;html=1;exitX=0.5;exitY=0;exitDx=0;exitDy=0;entryX=0;entryY=0.5;entryDx=0;entryDy=0;entryPerimeter=0;" edge="1" parent="1" source="RGOuZ_9aOBnYIE1q5zv2-4" target="RGOuZ_9aOBnYIE1q5zv2-6">
          <mxGeometry relative="1" as="geometry" />
        </mxCell>
        <mxCell id="RGOuZ_9aOBnYIE1q5zv2-16" value="publishes jobs" style="edgeLabel;html=1;align=center;verticalAlign=middle;resizable=0;points=[];" vertex="1" connectable="0" parent="RGOuZ_9aOBnYIE1q5zv2-8">
          <mxGeometry x="-0.4" y="-4" relative="1" as="geometry">
            <mxPoint as="offset" />
          </mxGeometry>
        </mxCell>
        <mxCell id="RGOuZ_9aOBnYIE1q5zv2-11" value="requesting dependencies" style="edgeLabel;html=1;align=center;verticalAlign=middle;resizable=0;points=[];" vertex="1" connectable="0" parent="1">
          <mxGeometry x="827" y="555" as="geometry" />
        </mxCell>
        <mxCell id="RGOuZ_9aOBnYIE1q5zv2-14" style="edgeStyle=orthogonalEdgeStyle;rounded=0;orthogonalLoop=1;jettySize=auto;html=1;entryX=0.25;entryY=0;entryDx=0;entryDy=0;" edge="1" parent="1" source="RGOuZ_9aOBnYIE1q5zv2-12" target="CaitW4O3s-EB0gviXZPl-33">
          <mxGeometry relative="1" as="geometry">
            <Array as="points">
              <mxPoint x="800" y="340" />
            </Array>
          </mxGeometry>
        </mxCell>
        <mxCell id="RGOuZ_9aOBnYIE1q5zv2-12" value="JobRunner Cron" style="rounded=0;whiteSpace=wrap;html=1;" vertex="1" parent="1">
          <mxGeometry x="430" y="295" width="120" height="60" as="geometry" />
        </mxCell>
        <mxCell id="RGOuZ_9aOBnYIE1q5zv2-13" style="edgeStyle=orthogonalEdgeStyle;rounded=0;orthogonalLoop=1;jettySize=auto;html=1;entryX=0;entryY=0;entryDx=0;entryDy=90;entryPerimeter=0;" edge="1" parent="1" source="RGOuZ_9aOBnYIE1q5zv2-12" target="RGOuZ_9aOBnYIE1q5zv2-6">
          <mxGeometry relative="1" as="geometry" />
        </mxCell>
        <mxCell id="RGOuZ_9aOBnYIE1q5zv2-15" value="execute jobs" style="edgeLabel;html=1;align=center;verticalAlign=middle;resizable=0;points=[];" vertex="1" connectable="0" parent="RGOuZ_9aOBnYIE1q5zv2-13">
          <mxGeometry x="0.8292" y="-3" relative="1" as="geometry">
            <mxPoint as="offset" />
          </mxGeometry>
        </mxCell>
      </root>
    </mxGraphModel>
  </diagram>
</mxfile>
